<svg width="253" height="253" viewBox="0 0 253 253" fill="none" xmlns="http://www.w3.org/2000/svg">
<path d="M0 18.1161C0 8.11247 8.36818 0 18.6893 0H234.211C244.532 0 252.9 8.11247 252.9 18.1161V234.784C252.9 244.79 244.532 252.9 234.211 252.9H18.6893C8.36818 252.9 0 244.79 0 234.784V18.1161Z" fill="#59B5E0"/>
<path d="M57.5629 81.9143C70.8823 81.9143 79.1746 73.1443 79.1746 62.1853C78.9273 50.979 70.8851 42.4535 57.8158 42.4535C44.7492 42.4535 36.2068 50.979 36.2068 62.1853C36.2068 73.1443 44.4963 81.9143 57.3156 81.9143H57.5629Z" fill="white"/>
<path d="M76.6624 211.703V97.5042H38.4633V211.703H76.6624Z" fill="white"/>
<path d="M97.7993 211.703H135.998V147.93C135.998 144.516 136.246 141.107 137.254 138.668C140.017 131.848 146.3 124.787 156.854 124.787C170.677 124.787 176.207 135.259 176.207 150.61V211.703H214.4V146.224C214.4 111.147 195.556 94.8263 170.424 94.8263C149.818 94.8263 140.77 106.271 135.743 114.066H135.998V97.5042H97.7993C98.2994 108.222 97.7993 211.703 97.7993 211.703Z" fill="white"/>
</svg>
